<?xml version="1.0" encoding="UTF-8"?>
<svg width="210px" height="56px" viewBox="0 0 210 56" version="1.1" xmlns="http://www.w3.org/2000/svg" xmlns:xlink="http://www.w3.org/1999/xlink">
    <title>cf-isologo-web3-light copy</title>
    <g id="blog-thumb-images" stroke="none" stroke-width="1" fill="none" fill-rule="evenodd">
        <g id="cf-isologo-web3-light-copy" fill="#FFFFFF">
            <g id="Group" transform="translate(66.000000, 12.000000)">
                <path d="M5.83414925,36.5595238 L7.95223881,30.0600774 C7.97158209,30.0006131 7.98995821,29.9342113 8.00736716,29.860872 C8.02477612,29.7875327 8.04315224,29.7112202 8.06249552,29.6319345 C8.09731343,29.7944702 8.136,29.9371845 8.17855522,30.0600774 L8.17855522,30.0600774 L10.2850388,36.5595238 L11.2947582,36.5595238 L13.8886925,28.0382917 L13.0124418,28.0382917 C12.9157254,28.0382917 12.8335164,28.0660417 12.7658149,28.1215417 C12.6981134,28.1770417 12.654591,28.2404702 12.6352478,28.3118274 L12.6352478,28.3118274 L10.9117612,34.2344702 C10.8808119,34.3375417 10.8556657,34.4485417 10.8363224,34.5674702 C10.8169791,34.6863988 10.7957015,34.8112738 10.7724896,34.9420952 C10.7183284,34.6764881 10.6564299,34.4406131 10.586794,34.2344702 L10.586794,34.2344702 L8.64279403,28.3118274 C8.61571343,28.2325417 8.57025672,28.167131 8.50642388,28.1155952 C8.44259104,28.0640595 8.36038209,28.0382917 8.25979701,28.0382917 L8.25979701,28.0382917 L7.93482985,28.0382917 C7.83811343,28.0382917 7.75590448,28.0670327 7.68820299,28.1245149 C7.62050149,28.181997 7.57504478,28.2444345 7.55183284,28.3118274 L7.55183284,28.3118274 L5.59622687,34.2344702 C5.56140896,34.3375417 5.5304597,34.4515149 5.5033791,34.5763899 C5.47629851,34.7012649 5.44921791,34.8310952 5.42213731,34.965881 C5.39892537,34.8310952 5.37474627,34.702256 5.3496,34.5793631 C5.32445373,34.4564702 5.29640597,34.341506 5.26545672,34.2344702 L5.26545672,34.2344702 L3.54777313,28.3118274 C3.52456119,28.2325417 3.48007164,28.167131 3.41430448,28.1155952 C3.34853731,28.0640595 3.26536119,28.0382917 3.16477612,28.0382917 L3.16477612,28.0382917 L2.23049552,28.0382917 L4.82442985,36.5595238 L5.83414925,36.5595238 Z M17.7960358,36.6427738 C18.0088119,36.6427738 18.2235224,36.6239435 18.4401672,36.5862827 C18.6568119,36.548622 18.8666866,36.492131 19.069791,36.4168095 C19.2728955,36.3414881 19.4634269,36.2453542 19.6413851,36.1284077 C19.8193433,36.0114613 19.9721552,35.8737024 20.0998209,35.715131 L20.0998209,35.715131 L19.8096716,35.3286131 C19.7632478,35.2612202 19.6974806,35.2275238 19.6123701,35.2275238 C19.546603,35.2275238 19.4682627,35.258247 19.3773493,35.3196935 C19.2864358,35.3811399 19.1732776,35.4475417 19.0378746,35.5188988 C18.9024716,35.590256 18.7409552,35.6566577 18.5533254,35.7181042 C18.3656955,35.7795506 18.1422806,35.8102738 17.8830806,35.8102738 C17.6045373,35.8102738 17.3530746,35.7636935 17.1286925,35.6705327 C16.9043104,35.577372 16.7108776,35.4366399 16.548394,35.2483363 C16.3859104,35.0600327 16.2582448,34.8251488 16.165397,34.5436845 C16.0725493,34.2622202 16.0222567,33.9312024 16.0145194,33.550631 L16.0145194,33.550631 L19.9257313,33.550631 C20.0224478,33.550631 20.0882149,33.522881 20.1230328,33.467381 C20.1578507,33.411881 20.1752597,33.300881 20.1752597,33.134381 C20.1752597,32.7062381 20.1143284,32.3246756 19.9924657,31.9896935 C19.870603,31.6547113 19.7013493,31.373247 19.4847045,31.1453006 C19.2680597,30.9173542 19.010794,30.7429256 18.7129075,30.6220149 C18.4150209,30.5011042 18.0900537,30.4406488 17.738006,30.4406488 C17.3124537,30.4406488 16.9294567,30.5169613 16.5890149,30.6695863 C16.2485731,30.8222113 15.9603582,31.0323185 15.7243701,31.2999077 C15.4883821,31.567497 15.3075224,31.8836488 15.181791,32.2483631 C15.0560597,32.6130774 14.993194,33.0055417 14.993194,33.425756 C14.993194,33.9450774 15.0628299,34.4049345 15.2021015,34.8053274 C15.3413731,35.2057202 15.5357731,35.5416935 15.7853015,35.813247 C16.0348299,36.0848006 16.3307821,36.2909435 16.6731582,36.4316756 C17.0155343,36.5724077 17.3898269,36.6427738 17.7960358,36.6427738 Z M19.2467821,32.8905774 L16.0493373,32.8905774 C16.1189731,32.3672917 16.2969313,31.9579792 16.5832119,31.6626399 C16.8694925,31.3673006 17.2621612,31.219631 17.7612179,31.219631 C17.997206,31.219631 18.2070806,31.2602649 18.3908418,31.3415327 C18.574603,31.4228006 18.7303164,31.5377649 18.8579821,31.6864256 C18.9856478,31.8350863 19.0823642,32.011497 19.1481313,32.2156577 C19.2138985,32.4198185 19.2467821,32.6447917 19.2467821,32.8905774 L19.2467821,32.8905774 Z M24.9472478,36.6427738 C25.3418507,36.6427738 25.6968,36.562497 26.0120955,36.4019435 C26.327391,36.2413899 26.5943284,36.021372 26.8129075,35.7418899 C27.0314866,35.4624077 27.198806,35.1313899 27.3148657,34.7488363 C27.4309254,34.3662827 27.4889552,33.953006 27.4889552,33.509006 C27.4889552,33.009506 27.4367284,32.5684792 27.3322746,32.1859256 C27.2278209,31.803372 27.0788776,31.4822649 26.8854448,31.2226042 C26.6920119,30.9629435 26.4579582,30.7677024 26.1832836,30.636881 C25.908609,30.5060595 25.6010507,30.4406488 25.260609,30.4406488 C24.8544,30.4406488 24.4936478,30.5288542 24.1783522,30.7052649 C23.8630567,30.8816756 23.5835463,31.1145774 23.3398209,31.4039702 L23.3398209,31.4039702 L23.3398209,27.8004345 L22.3010866,27.8004345 L22.3010866,36.5595238 L22.9684299,36.5595238 C23.1154388,36.5595238 23.2044179,36.4842024 23.2353672,36.3335595 L23.2353672,36.3335595 L23.287594,35.7864881 C23.4848955,36.0560595 23.7160478,36.2661667 23.9810507,36.4168095 C24.2460537,36.5674524 24.5681194,36.6427738 24.9472478,36.6427738 Z M24.7151284,35.8221667 C24.4365851,35.8221667 24.1841552,35.7686488 23.9578388,35.6616131 C23.7315224,35.5545774 23.5255164,35.3702381 23.3398209,35.1085952 L23.3398209,35.1085952 L23.3398209,32.1948452 C23.552597,31.9054524 23.7856836,31.6814702 24.0390806,31.5228988 C24.2924776,31.3643274 24.5874627,31.2850417 24.9240358,31.2850417 C25.1600239,31.2850417 25.3708657,31.3266667 25.5565612,31.4099167 C25.7422567,31.4931667 25.8989373,31.6249792 26.026603,31.8053542 C26.1542687,31.9857292 26.2519522,32.2166488 26.3196537,32.4981131 C26.3873552,32.7795774 26.421206,33.1165417 26.421206,33.509006 C26.421206,34.2503274 26.274197,34.8211845 25.9801791,35.2215774 C25.6861612,35.6219702 25.2644776,35.8221667 24.7151284,35.8221667 Z M32.1216716,36.6546667 C32.5046687,36.6546667 32.8634866,36.5961935 33.1981254,36.479247 C33.5327642,36.3623006 33.8258149,36.1938185 34.0772776,35.9738006 C34.3287403,35.7537827 34.527009,35.4871845 34.6720836,35.174006 C34.8171582,34.8608274 34.8896955,34.508006 34.8896955,34.1155417 C34.8896955,33.5962202 34.7533254,33.1641131 34.4805851,32.8192202 C34.2078448,32.4743274 33.8006687,32.2285417 33.2590567,32.0818631 C33.4795701,32.0144702 33.678806,31.9252738 33.8567642,31.8142738 C34.0347224,31.7032738 34.1865672,31.567497 34.3122985,31.4069435 C34.4380299,31.2463899 34.5347463,31.0600685 34.6024478,30.8479792 C34.6701493,30.6358899 34.704,30.3950595 34.704,30.1254881 C34.704,29.7964524 34.6440358,29.4971488 34.5241075,29.2275774 C34.4041791,28.958006 34.2368597,28.7280774 34.0221493,28.5377917 C33.8074388,28.347506 33.5511403,28.2008274 33.2532537,28.097756 C32.9553672,27.9946845 32.6304,27.9431488 32.2783522,27.9431488 C31.9224358,27.9431488 31.5906985,27.9956756 31.2831403,28.1007292 C30.9755821,28.2057827 30.7028418,28.3593988 30.4649194,28.5615774 C30.226997,28.763756 30.0306627,29.014497 29.8759164,29.3138006 C29.7211701,29.6131042 29.6167164,29.957006 29.5625552,30.345506 L29.5625552,30.345506 L30.1022328,30.4406488 C30.1293134,30.4446131 30.1534925,30.4475863 30.1747701,30.4495685 C30.1960478,30.4515506 30.2163582,30.4525417 30.2357015,30.4525417 C30.3324179,30.4525417 30.4117254,30.4267738 30.4736239,30.3752381 C30.5355224,30.3237024 30.5819463,30.2404524 30.6128955,30.1254881 C30.6593194,29.943131 30.7289552,29.7736577 30.821803,29.6170685 C30.9146507,29.4604792 31.0297433,29.3256935 31.1670806,29.2127113 C31.3044179,29.0997292 31.4620657,29.0115238 31.6400239,28.9480952 C31.8179821,28.8846667 32.0114149,28.8529524 32.2203224,28.8529524 C32.4292299,28.8529524 32.6236299,28.8826845 32.8035224,28.9421488 C32.9834149,29.0016131 33.1391284,29.0908095 33.2706627,29.2097381 C33.402197,29.3286667 33.5056836,29.4793095 33.5811224,29.6616667 C33.6565612,29.8440238 33.6942806,30.0580952 33.6942806,30.303881 C33.6942806,30.525881 33.6584955,30.7280595 33.5869254,30.9104167 C33.5153552,31.0927738 33.4002627,31.2493631 33.2416478,31.3801845 C33.0830328,31.511006 32.8789612,31.6140774 32.6294328,31.6893988 C32.3799045,31.7647202 32.0791164,31.8043631 31.7270687,31.8083274 L31.7270687,31.8083274 L31.7270687,32.5754167 C32.1603582,32.5754167 32.5153075,32.6150595 32.7919164,32.6943452 C33.0685254,32.773631 33.2851701,32.8826488 33.4418507,33.0213988 C33.5985313,33.1601488 33.7068537,33.3246667 33.7668179,33.5149524 C33.8267821,33.7052381 33.8567642,33.9153452 33.8567642,34.1452738 C33.8567642,34.3315952 33.8200119,34.5198988 33.7465075,34.7101845 C33.673003,34.9004702 33.5637134,35.0729167 33.4186388,35.2275238 C33.2735642,35.382131 33.0917373,35.507997 32.8731582,35.605122 C32.6545791,35.702247 32.4002149,35.7508095 32.1100657,35.7508095 C31.8199164,35.7508095 31.5771582,35.7072024 31.381791,35.6199881 C31.1864239,35.5327738 31.0229731,35.4257381 30.8914388,35.298881 C30.7599045,35.1720238 30.6554507,35.036247 30.5780776,34.8915506 C30.5007045,34.7468542 30.4349373,34.6170238 30.3807761,34.5020595 C30.3730388,34.4822381 30.3653015,34.4634077 30.3575642,34.4455685 C30.3498269,34.4277292 30.3420896,34.410881 30.3343522,34.3950238 C30.303403,34.3236667 30.2579463,34.2711399 30.1979821,34.2374435 C30.1380179,34.203747 30.0693493,34.1868988 29.9919761,34.1868988 C29.9107343,34.1868988 29.8294925,34.2047381 29.7482507,34.2404167 L29.7482507,34.2404167 L29.3072239,34.4307024 C29.4039403,34.7478452 29.5219343,35.0421935 29.661206,35.313747 C29.8004776,35.5853006 29.9784358,35.8201845 30.1950806,36.0183988 C30.4117254,36.2166131 30.6767284,36.3722113 30.9900896,36.4851935 C31.3034507,36.5981756 31.6806448,36.6546667 32.1216716,36.6546667 Z M42.8185075,36.6546667 C43.2595343,36.6546667 43.6531701,36.5852917 43.9994149,36.4465417 C44.3456597,36.3077917 44.6377433,36.117506 44.8756657,35.8756845 C45.1135881,35.6338631 45.2944478,35.3494256 45.4182448,35.022372 C45.5420418,34.6953185 45.6039403,34.3454702 45.6039403,33.9728274 C45.6039403,33.620006 45.5468776,33.3226845 45.4327522,33.0808631 C45.3186269,32.8390417 45.1677493,32.634881 44.9801194,32.468381 C44.7924896,32.301881 44.5797134,32.164122 44.341791,32.0551042 C44.1038687,31.9460863 43.8601433,31.8479702 43.6106149,31.760756 C43.3610866,31.6735417 43.1173612,31.5893006 42.8794388,31.5080327 C42.6415164,31.4267649 42.4287403,31.330631 42.2411104,31.219631 C42.0534806,31.108631 41.902603,30.9748363 41.7884776,30.818247 C41.6743522,30.6616577 41.6172896,30.4644345 41.6172896,30.2265774 C41.6172896,30.040256 41.6501731,29.8668185 41.7159403,29.7062649 C41.7817075,29.5457113 41.879391,29.4059702 42.008991,29.2870417 C42.138591,29.1681131 42.3001075,29.0739613 42.4935403,29.0045863 C42.6869731,28.9352113 42.9094209,28.9005238 43.1608836,28.9005238 C43.4278209,28.9005238 43.6551045,28.9342202 43.8427343,29.0016131 C44.0303642,29.069006 44.1909134,29.1433363 44.3243821,29.2246042 C44.4578507,29.305872 44.5681075,29.3802024 44.6551522,29.4475952 C44.742197,29.5149881 44.818603,29.5486845 44.8843701,29.5486845 C44.9462687,29.5486845 44.9965612,29.5338185 45.0352478,29.5040863 C45.0739343,29.4743542 45.1106866,29.429756 45.1455045,29.3702917 L45.1455045,29.3702917 L45.4182448,28.8232202 C45.1319642,28.5377917 44.7973254,28.319756 44.4143284,28.1691131 C44.0313313,28.0184702 43.6077134,27.9431488 43.1434746,27.9431488 C42.7295284,27.9431488 42.3629731,28.0085595 42.043809,28.139381 C41.7246448,28.2702024 41.4567403,28.444631 41.2400955,28.6626667 C41.0234507,28.8807024 40.8580657,29.1304524 40.7439403,29.4119167 C40.6298149,29.693381 40.5727522,29.984756 40.5727522,30.2860417 C40.5727522,30.6626488 40.6298149,30.9788006 40.7439403,31.234497 C40.8580657,31.4901935 41.0079761,31.7032738 41.1936716,31.8737381 C41.3793672,32.0442024 41.5911761,32.1829524 41.8290985,32.2899881 C42.0670209,32.3970238 42.3107463,32.4911756 42.5602746,32.5724435 C42.809803,32.6537113 43.0535284,32.732997 43.2914507,32.8103006 C43.5293731,32.8876042 43.7411821,32.981756 43.9268776,33.092756 C44.1125731,33.203756 44.2624836,33.3415149 44.376609,33.5060327 C44.4907343,33.6705506 44.547797,33.8816488 44.547797,34.1393274 C44.547797,34.3732202 44.5091104,34.5853095 44.4317373,34.7755952 C44.3543642,34.965881 44.2431403,35.1294077 44.0980657,35.2661756 C43.952991,35.4029435 43.776,35.5089881 43.5670925,35.5843095 C43.3581851,35.659631 43.1202627,35.6972917 42.8533254,35.6972917 C42.5322269,35.6972917 42.2604537,35.6526935 42.038006,35.563497 C41.8155582,35.4743006 41.625994,35.3761845 41.4693134,35.2691488 C41.3126328,35.1621131 41.1820657,35.063997 41.0776119,34.9748006 C40.9731582,34.8856042 40.8803104,34.841006 40.7990687,34.841006 C40.7449075,34.841006 40.6955821,34.855872 40.6510925,34.8856042 C40.606603,34.9153363 40.5688836,34.952006 40.5379343,34.9956131 L40.5379343,34.9956131 L40.2129672,35.5426845 C40.5263284,35.8836131 40.9044896,36.1541756 41.3474507,36.354372 C41.7904119,36.5545685 42.2807642,36.6546667 42.8185075,36.6546667 Z M50.0277493,36.6427738 C50.4571701,36.6427738 50.845003,36.5704256 51.1912478,36.4257292 C51.5374925,36.2810327 51.8315104,36.0738988 52.0733015,35.8043274 C52.3150925,35.534756 52.5007881,35.2096845 52.6303881,34.8291131 C52.7599881,34.4485417 52.8247881,34.0203988 52.8247881,33.5446845 C52.8247881,33.0729345 52.7599881,32.6457827 52.6303881,32.2632292 C52.5007881,31.8806756 52.3150925,31.5546131 52.0733015,31.2850417 C51.8315104,31.0154702 51.5374925,30.8073452 51.1912478,30.6606667 C50.845003,30.5139881 50.4571701,30.4406488 50.0277493,30.4406488 C49.5983284,30.4406488 49.2104955,30.5139881 48.8642507,30.6606667 C48.518006,30.8073452 48.2230209,31.0154702 47.9792955,31.2850417 C47.7355701,31.5546131 47.5479403,31.8806756 47.416406,32.2632292 C47.2848716,32.6457827 47.2191045,33.0729345 47.2191045,33.5446845 C47.2191045,34.0203988 47.2848716,34.4485417 47.416406,34.8291131 C47.5479403,35.2096845 47.7355701,35.534756 47.9792955,35.8043274 C48.2230209,36.0738988 48.518006,36.2810327 48.8642507,36.4257292 C49.2104955,36.5704256 49.5983284,36.6427738 50.0277493,36.6427738 Z M50.0277493,35.8162202 C49.7337313,35.8162202 49.4784,35.7646845 49.2617552,35.6616131 C49.0451104,35.5585417 48.8642507,35.410872 48.7191761,35.2186042 C48.5741015,35.0263363 48.4657791,34.7894702 48.394209,34.508006 C48.3226388,34.2265417 48.2868537,33.9074167 48.2868537,33.550631 C48.2868537,33.1938452 48.3226388,32.8737292 48.394209,32.5902827 C48.4657791,32.3068363 48.5741015,32.0679881 48.7191761,31.8737381 C48.8642507,31.6794881 49.0451104,31.5308274 49.2617552,31.427756 C49.4784,31.3246845 49.7337313,31.2731488 50.0277493,31.2731488 C50.6080478,31.2731488 51.0413373,31.4733452 51.3276179,31.8737381 C51.6138985,32.274131 51.7570388,32.8330952 51.7570388,33.550631 C51.7570388,34.2642024 51.6138985,34.8201935 51.3276179,35.2186042 C51.0413373,35.6170149 50.6080478,35.8162202 50.0277493,35.8162202 Z M56.0241672,36.5595238 L56.0241672,27.8004345 L54.9912358,27.8004345 L54.9912358,36.5595238 L56.0241672,36.5595238 Z M60.4479761,36.6546667 C60.8580537,36.6546667 61.2217075,36.5664613 61.5389373,36.3900506 C61.8561672,36.2136399 62.1424478,35.9807381 62.3977791,35.6913452 L62.3977791,35.6913452 L62.4790209,36.339506 C62.5177075,36.4861845 62.6105552,36.5595238 62.7575642,36.5595238 L62.7575642,36.5595238 L63.3726806,36.5595238 L63.3726806,30.5357917 L62.3397493,30.5357917 L62.3397493,34.9777738 C62.1153672,35.2394167 61.8697075,35.4435774 61.6027701,35.590256 C61.3358328,35.7369345 61.0514866,35.8102738 60.7497313,35.8102738 C60.3357851,35.8102738 60.0262925,35.6853988 59.8212537,35.4356488 C59.6162149,35.1858988 59.5136955,34.8330774 59.5136955,34.3771845 L59.5136955,34.3771845 L59.5136955,30.5357917 L58.4807642,30.5357917 L58.4807642,34.3771845 C58.4807642,34.7181131 58.5223522,35.0293095 58.6055284,35.3107738 C58.6887045,35.5922381 58.8134687,35.8320774 58.9798209,36.0302917 C59.1461731,36.228506 59.3521791,36.382122 59.5978388,36.4911399 C59.8434985,36.6001577 60.1268776,36.6546667 60.4479761,36.6546667 Z M67.628203,36.6546667 C67.8951403,36.6546667 68.1543403,36.6061042 68.405803,36.5089792 C68.6572657,36.4118542 68.8719761,36.2780595 69.0499343,36.1075952 L69.0499343,36.1075952 L68.7481791,35.6021488 C68.7056239,35.534756 68.6572657,35.5010595 68.6031045,35.5010595 C68.5721552,35.5010595 68.5363701,35.5159256 68.4957493,35.5456577 C68.4551284,35.5753899 68.405803,35.6080952 68.3477731,35.6437738 C68.2897433,35.6794524 68.2210746,35.7121577 68.1417672,35.7418899 C68.0624597,35.771622 67.9686448,35.7864881 67.8603224,35.7864881 C67.6707582,35.7864881 67.5160119,35.7250417 67.3960836,35.6021488 C67.2761552,35.479256 67.216191,35.2909524 67.216191,35.0372381 L67.216191,35.0372381 L67.216191,31.4218095 L68.8990567,31.4218095 L68.8990567,30.6547202 L67.216191,30.6547202 L67.216191,28.5794167 L66.6939224,28.5794167 C66.6281552,28.5794167 66.573994,28.598247 66.5314388,28.6359077 C66.4888836,28.6735685 66.4637373,28.722131 66.456,28.7815952 L66.456,28.7815952 L66.2180776,30.6428274 L65.2547821,30.7677024 L65.2547821,31.1898988 C65.2547821,31.2691845 65.2760597,31.3276577 65.3186149,31.3653185 C65.3611701,31.4029792 65.413397,31.4218095 65.4752955,31.4218095 L65.4752955,31.4218095 L66.1832597,31.4218095 L66.1832597,35.1085952 C66.1832597,35.6080952 66.3080239,35.9906488 66.5575522,36.256256 C66.8070806,36.5218631 67.1639642,36.6546667 67.628203,36.6546667 Z M71.5877731,29.3940774 C71.6883582,29.3940774 71.7831403,29.374256 71.8721194,29.3346131 C71.9610985,29.2949702 72.0394388,29.2404613 72.1071403,29.1710863 C72.1748418,29.1017113 72.229003,29.0224256 72.2696239,28.9332292 C72.3102448,28.8440327 72.3305552,28.7478988 72.3305552,28.6448274 C72.3305552,28.541756 72.3102448,28.4436399 72.2696239,28.3504792 C72.229003,28.2573185 72.1748418,28.1760506 72.1071403,28.1066756 C72.0394388,28.0373006 71.9610985,27.9827917 71.8721194,27.9431488 C71.7831403,27.903506 71.6883582,27.8836845 71.5877731,27.8836845 C71.4871881,27.8836845 71.3933731,27.903506 71.3063284,27.9431488 C71.2192836,27.9827917 71.1419104,28.0373006 71.074209,28.1066756 C71.0065075,28.1760506 70.9533134,28.2573185 70.9146269,28.3504792 C70.8759403,28.4436399 70.856597,28.541756 70.856597,28.6448274 C70.856597,28.7478988 70.8759403,28.8440327 70.9146269,28.9332292 C70.9533134,29.0224256 71.0065075,29.1017113 71.074209,29.1710863 C71.1419104,29.2404613 71.2192836,29.2949702 71.3063284,29.3346131 C71.3933731,29.374256 71.4871881,29.3940774 71.5877731,29.3940774 Z M72.0984358,36.5595238 L72.0984358,30.5357917 L71.0655045,30.5357917 L71.0655045,36.5595238 L72.0984358,36.5595238 Z M77.0735284,36.6427738 C77.5029493,36.6427738 77.8907821,36.5704256 78.2370269,36.4257292 C78.5832716,36.2810327 78.8772896,36.0738988 79.1190806,35.8043274 C79.3608716,35.534756 79.5465672,35.2096845 79.6761672,34.8291131 C79.8057672,34.4485417 79.8705672,34.0203988 79.8705672,33.5446845 C79.8705672,33.0729345 79.8057672,32.6457827 79.6761672,32.2632292 C79.5465672,31.8806756 79.3608716,31.5546131 79.1190806,31.2850417 C78.8772896,31.0154702 78.5832716,30.8073452 78.2370269,30.6606667 C77.8907821,30.5139881 77.5029493,30.4406488 77.0735284,30.4406488 C76.6441075,30.4406488 76.2562746,30.5139881 75.9100299,30.6606667 C75.5637851,30.8073452 75.2688,31.0154702 75.0250746,31.2850417 C74.7813493,31.5546131 74.5937194,31.8806756 74.4621851,32.2632292 C74.3306507,32.6457827 74.2648836,33.0729345 74.2648836,33.5446845 C74.2648836,34.0203988 74.3306507,34.4485417 74.4621851,34.8291131 C74.5937194,35.2096845 74.7813493,35.534756 75.0250746,35.8043274 C75.2688,36.0738988 75.5637851,36.2810327 75.9100299,36.4257292 C76.2562746,36.5704256 76.6441075,36.6427738 77.0735284,36.6427738 Z M77.0735284,35.8162202 C76.7795104,35.8162202 76.5241791,35.7646845 76.3075343,35.6616131 C76.0908896,35.5585417 75.9100299,35.410872 75.7649552,35.2186042 C75.6198806,35.0263363 75.5115582,34.7894702 75.4399881,34.508006 C75.3684179,34.2265417 75.3326328,33.9074167 75.3326328,33.550631 C75.3326328,33.1938452 75.3684179,32.8737292 75.4399881,32.5902827 C75.5115582,32.3068363 75.6198806,32.0679881 75.7649552,31.8737381 C75.9100299,31.6794881 76.0908896,31.5308274 76.3075343,31.427756 C76.5241791,31.3246845 76.7795104,31.2731488 77.0735284,31.2731488 C77.6538269,31.2731488 78.0871164,31.4733452 78.373397,31.8737381 C78.6596776,32.274131 78.8028179,32.8330952 78.8028179,33.550631 C78.8028179,34.2642024 78.6596776,34.8201935 78.373397,35.2186042 C78.0871164,35.6170149 77.6538269,35.8162202 77.0735284,35.8162202 Z M82.9538866,36.5595238 L82.9538866,32.1234881 C83.1782687,31.8658095 83.4229612,31.6616488 83.6879642,31.511006 C83.9529672,31.3603631 84.2382806,31.2850417 84.5439045,31.2850417 C84.9617194,31.2850417 85.2721791,31.4109077 85.4752836,31.6626399 C85.6783881,31.914372 85.7799403,32.2681845 85.7799403,32.7240774 L85.7799403,32.7240774 L85.7799403,36.5595238 L86.8128716,36.5595238 L86.8128716,32.7240774 C86.8128716,32.3831488 86.7703164,32.0719524 86.685206,31.7904881 C86.6000955,31.5090238 86.4753313,31.2681935 86.3109134,31.067997 C86.1464955,30.8678006 85.9414567,30.7131935 85.695797,30.6041756 C85.4501373,30.4951577 85.1667582,30.4406488 84.8456597,30.4406488 C84.4317134,30.4406488 84.0670925,30.5298452 83.751797,30.7082381 C83.4365015,30.886631 83.1511881,31.1205238 82.8958567,31.4099167 L82.8958567,31.4099167 L82.8146149,30.7558095 C82.7759284,30.609131 82.6830806,30.5357917 82.5360716,30.5357917 L82.5360716,30.5357917 L81.9209552,30.5357917 L81.9209552,36.5595238 L82.9538866,36.5595238 Z M90.6215642,36.6546667 C90.9813493,36.6546667 91.2985791,36.6051131 91.5732537,36.506006 C91.8479284,36.4068988 92.0800478,36.271122 92.2696119,36.0986756 C92.4591761,35.9262292 92.6023164,35.7220685 92.6990328,35.4861935 C92.7957493,35.2503185 92.8441075,34.993631 92.8441075,34.716131 C92.8441075,34.4743095 92.8005851,34.2671756 92.7135403,34.0947292 C92.6264955,33.9222827 92.511403,33.7765952 92.3682627,33.6576667 C92.2251224,33.5387381 92.0626388,33.439631 91.8808119,33.3603452 C91.6989851,33.2810595 91.5123224,33.2087113 91.3208239,33.1433006 C91.1293254,33.0778899 90.9426627,33.0164435 90.7608358,32.9589613 C90.579009,32.9014792 90.4165254,32.8350774 90.2733851,32.759756 C90.1302448,32.6844345 90.0151522,32.5952381 89.9281075,32.4921667 C89.8410627,32.3890952 89.7975403,32.260256 89.7975403,32.1056488 C89.7975403,31.982756 89.8236537,31.8687827 89.8758806,31.7637292 C89.9281075,31.6586756 90.0035463,31.566506 90.102197,31.4872202 C90.2008478,31.4079345 90.319809,31.345497 90.4590806,31.2999077 C90.5983522,31.2543185 90.7550328,31.2315238 90.9291224,31.2315238 C91.1302925,31.2315238 91.3043821,31.2543185 91.451391,31.2999077 C91.5984,31.345497 91.7250985,31.3950506 91.8314866,31.4485685 C91.9378746,31.5020863 92.0278209,31.5506488 92.1013254,31.594256 C92.1748299,31.6378631 92.240597,31.6596667 92.2986269,31.6596667 C92.3953433,31.6596667 92.4669134,31.6160595 92.5133373,31.5288452 L92.5133373,31.5288452 L92.7454567,31.1423274 C92.5210746,30.9242917 92.2551045,30.7528363 91.9475463,30.6279613 C91.6399881,30.5030863 91.2927761,30.4406488 90.9059104,30.4406488 C90.573206,30.4406488 90.2772537,30.4882202 90.0180537,30.5833631 C89.7588537,30.678506 89.5402746,30.8063542 89.3623164,30.9669077 C89.1843582,31.1274613 89.0489552,31.3137827 88.9561075,31.525872 C88.8632597,31.7379613 88.8168358,31.9589702 88.8168358,32.1888988 C88.8168358,32.4465774 88.8603582,32.6656042 88.947403,32.8459792 C89.0344478,33.0263542 89.1495403,33.1779881 89.2926806,33.300881 C89.4358209,33.4237738 89.5992716,33.5258542 89.7830328,33.607122 C89.966794,33.6883899 90.1544239,33.7607381 90.3459224,33.8241667 C90.5374209,33.8875952 90.7250507,33.9480506 90.9088119,34.0055327 C91.0925731,34.0630149 91.2560239,34.1304077 91.3991642,34.2077113 C91.5423045,34.2850149 91.657397,34.3781756 91.7444418,34.4871935 C91.8314866,34.5962113 91.875009,34.7339702 91.875009,34.9004702 C91.875009,35.035256 91.8508299,35.1621131 91.8024716,35.2810417 C91.7541134,35.3999702 91.6796418,35.5050238 91.5790567,35.5962024 C91.4784716,35.687381 91.3527403,35.7597292 91.2018627,35.813247 C91.0509851,35.8667649 90.8749612,35.8935238 90.673791,35.8935238 C90.437803,35.8935238 90.2414687,35.8657738 90.0847881,35.8102738 C89.9281075,35.7547738 89.7946388,35.6933274 89.6843821,35.6259345 C89.5741254,35.5585417 89.4803104,35.4970952 89.4029373,35.4415952 C89.3255642,35.3860952 89.2520597,35.3583452 89.1824239,35.3583452 C89.1127881,35.3583452 89.0566925,35.3722202 89.0141373,35.3999702 C88.9715821,35.4277202 88.9348299,35.4673631 88.9038806,35.5188988 L88.9038806,35.5188988 L88.6601552,35.923256 C88.8922746,36.1373274 89.1746866,36.312747 89.507391,36.4495149 C89.8400955,36.5862827 90.2114866,36.6546667 90.6215642,36.6546667 Z" id="Web3Solutions" fill-rule="nonzero"></path>
                <path d="M136.934537,13.0979626 L143.802146,6.12989334 L140.227365,6.12989334 L134.183674,12.3973914 L134.183674,0.408631673 L131.201237,0.408631673 L131.201237,21.9945893 L134.183674,21.9945893 L134.183674,13.8265566 L140.56782,21.9945893 L144,21.9945893 L136.934537,13.0979626 Z M124.875594,21.9945893 L127.828373,21.9945893 L127.828373,6.12947509 L124.875594,6.12947509 L124.875594,21.9945893 Z M124.875594,3.6195481 L127.828373,3.6195481 L127.828373,0.408631673 L124.875594,0.408631673 L124.875594,3.6195481 Z M118.520292,8.46039046 L118.520292,6.12989334 L115.740178,6.12989334 L115.740178,21.9945893 L118.688489,21.9945893 L118.688489,13.4200162 C118.688489,10.2672367 120.137658,8.69168351 122.918585,8.69168351 L123.119689,8.69168351 L123.119689,5.65852395 C121.015204,5.69031106 119.398651,6.5920612 118.520292,8.46039046 L118.520292,8.46039046 Z M110.405024,14.0603592 C110.376179,16.8057618 108.502862,19.6339781 104.986585,19.6339781 C101.836764,19.6339781 99.7367475,17.0671689 99.7367475,14.0314999 C99.7367475,11.0263631 101.891204,8.4884133 105.070683,8.4884133 C108.10756,8.4884133 110.405024,10.9422946 110.405024,14.0314999 L110.405024,14.0603592 Z M105.524488,5.65852395 C103.537821,5.69031106 101.270015,6.5920612 99.8505035,8.66324241 L99.8505035,0.408631673 L96.8973178,0.408631673 L96.8973178,21.9945893 L99.7367475,21.9945893 L99.7367475,19.2533693 C100.728049,21.1497214 102.773625,22.4642857 105.411138,22.4642857 C109.838682,22.4642857 113.358616,19.1103273 113.358616,14.0038953 C113.358616,8.72179762 109.527885,5.65852395 105.524488,5.65852395 L105.524488,5.65852395 Z M90.1178694,16.4816169 C89.3536732,18.2909727 87.6733353,19.6339781 85.3210248,19.6339781 C81.5784541,19.6339781 79.9614945,16.4816169 79.9318367,14.1164049 L79.9318367,14.0925646 C79.9318367,11.1154507 82.0286026,8.4884133 85.2665845,8.4884133 C87.7322447,8.4884133 89.4670229,9.91757853 90.2019676,11.7574667 C90.5460793,12.4860607 90.6894931,13.3033241 90.6598353,14.1164049 C90.6301775,14.9357595 90.4583248,15.7530228 90.1178694,16.4816169 L90.1178694,16.4816169 Z M90.6301775,8.92506782 C89.9204216,7.40932455 87.9630067,5.65852395 84.9009403,5.65852395 C80.4152995,5.65852395 76.9794636,9.21700734 76.9794636,14.0603592 C76.9794636,18.4942429 79.9318367,22.4642857 84.9009403,22.4642857 C87.337349,22.4642857 89.5511211,21.3550829 90.6301775,19.2253464 L90.6301775,21.9945893 L93.5788942,21.9945893 L93.5788942,6.12989334 L90.6301775,6.12989334 L90.6301775,8.92506782 Z M65.0923731,21.9945893 L68.4400482,21.9945893 L68.4400482,12.7474679 L75.9296586,12.7474679 L75.9296586,9.74651368 L68.4400482,9.74651368 L68.4400482,3.44388249 L76.0426021,3.44388249 L76.0426021,0.408631673 L65.0923731,0.408631673 L65.0923731,21.9945893 Z M55.5283417,5.65852395 C52.77301,5.63217411 51.0467635,6.94255592 50.3069436,8.57499136 L50.3069436,6.12989334 L47.5268294,6.12989334 L47.5268294,21.9945893 L50.4796089,21.9945893 L50.4796089,13.1565178 C50.4796089,10.4148795 51.8150224,8.54696851 54.7052361,8.51852741 C57.7165186,8.4884133 58.7919186,10.5336629 58.7919186,13.3919934 L58.7919186,21.9945893 L61.7739495,21.9945893 L61.7739495,12.6889127 C61.7739495,9.39434596 60.4677875,5.71875216 55.5283417,5.65852395 L55.5283417,5.65852395 Z M41.284878,3.6195481 L44.2335947,3.6195481 L44.2335947,0.408631673 L41.284878,0.408631673 L41.284878,3.6195481 Z M41.284878,21.9945893 L44.2335947,21.9945893 L44.2335947,6.12947509 L41.284878,6.12947509 L41.284878,21.9945893 Z M30.616195,19.603864 C27.6674783,19.603864 25.3403566,17.2424163 25.3403566,14.0925646 L25.3403566,14.0603592 C25.3403566,10.8816481 27.6674783,8.51852741 30.616195,8.51852741 C33.5685681,8.51852741 35.8920334,10.8816481 35.8920334,14.0603592 C35.8920334,17.2424163 33.5685681,19.603864 30.616195,19.603864 L30.616195,19.603864 Z M30.616195,5.65852395 C25.4244547,5.65852395 22.3879834,9.80297763 22.3879834,14.0314999 L22.3879834,14.0603592 C22.3879834,18.3189955 25.4244547,22.4341716 30.616195,22.4341716 C35.8079353,22.4341716 38.8448128,18.3189955 38.8448128,14.0603592 C38.8448128,9.80297763 35.8079353,5.65852395 30.616195,5.65852395 L30.616195,5.65852395 Z M10.9250401,3.03525082 C14.6172332,3.06160066 16.7424381,5.69031106 17.4229425,7.08978043 L20.9721281,7.08978043 C19.9471057,4.11224832 16.5998369,0.028441099 10.9546979,0 C4.45638932,0 0,5.24905578 0,11.1731694 C0,17.3009715 4.65383715,22.4057305 10.9835432,22.4057305 C15.7515426,22.4057305 19.6322455,19.3700614 20.9428766,15.4326422 L17.4229425,15.4326422 C16.9695438,16.2202097 15.0117226,19.3700614 10.9546979,19.3700614 C6.52309116,19.3700614 3.34767508,15.6647718 3.34767508,11.1731694 C3.34767508,6.79574966 6.46865081,3.03525082 10.9250401,3.03525082 L10.9250401,3.03525082 Z" id="Fill-1"></path>
            </g>
            <path d="M27.9949885,0 C43.4575006,0 56,12.5361879 56,28 C56,43.4638121 43.4575006,56 27.9949885,56 C12.5329538,56 0,43.4638121 0,28 C0,12.5361879 12.5329538,0 27.9949885,0 Z M27.9949885,3.7986568 C14.6306091,3.7986568 3.79391636,14.6333481 3.79391636,28 C3.79391636,41.3666519 14.6306091,52.2013432 27.9949885,52.2013432 C41.364618,52.2013432 52.2013108,41.3666519 52.2013108,28 C52.2013108,14.6333481 41.364618,3.7986568 27.9949885,3.7986568 Z M27.9951799,11.2 C38.3068096,11.2 43.5076923,14.8213995 43.5076923,14.8213995 L43.507024,14.9708795 C43.50192,16.1225815 43.4691363,23.7016997 43.462879,29.7456628 L43.4620191,30.8821829 C43.4619627,31.0059179 43.4619199,31.1287279 43.4618912,31.2505361 L43.4618922,31.9687511 C43.461922,32.0862456 43.4619669,32.202585 43.4620274,32.3176926 L43.462583,32.992943 C43.4655903,35.6299089 43.4782209,37.4690007 43.5076923,37.4500043 C39.085737,43.7045836 27.9951799,46.9538462 27.9951799,46.9538462 L27.9676709,46.9456624 C27.3581312,46.7629582 16.78141,43.5232915 12.4923077,37.4500043 C12.5181755,37.4682091 12.5298777,35.7799407 12.5332321,33.3183314 L12.5339217,32.6592433 C12.5340063,32.546676 12.5340761,32.4328002 12.5341316,32.3176926 L12.5341392,30.8821829 C12.5340876,30.7584479 12.5340235,30.6337879 12.5339475,30.5082795 L12.5333517,29.7456628 C12.5276206,23.7016997 12.4975945,16.1225815 12.4929198,14.9708795 L12.4923077,14.8213995 L12.4923077,14.8213995 C12.4923077,14.8213995 17.6927084,11.2 27.9951799,11.2 Z M27.9951799,15.1117428 C20.6364298,15.1117428 16.7863652,17.7011864 16.5112696,17.892997 L16.4953968,17.9042049 L16.4953968,17.9042049 L16.4957955,18.0063382 C16.4958821,18.0286848 16.495982,18.054581 16.4960946,18.0839102 L16.4969171,18.3001496 C16.5023782,19.7483849 16.5209115,24.895729 16.5253055,29.1609715 L16.5259286,29.9035721 C16.5260062,30.0255019 16.5260701,30.1464355 16.5261197,30.2662564 L16.5261613,31.3114535 C16.5261188,31.4235489 16.52606,31.5341819 16.525984,31.643236 L16.525318,32.2776802 C16.5226719,34.1185749 16.5140441,35.3723528 16.4953968,35.3592452 C19.7677594,40.1798058 27.9951799,42.6852728 27.9951799,42.6852728 C27.9951799,42.6852728 36.2274205,40.1798058 39.5036392,35.3592452 C39.4835555,35.3714881 39.4754264,34.041492 39.4728476,32.1105068 L39.4720098,31.1405141 C39.4719711,31.056341 39.4719397,30.9713962 39.4719151,30.885727 L39.4719217,29.8259619 C39.4719452,29.7352566 39.4719739,29.6440167 39.4720073,29.5522897 L39.4728168,28.1457749 C39.4729589,27.9549491 39.473112,27.7631234 39.4732726,27.5706773 C37.6479026,26.8374049 35.7323967,26.2672413 33.7431434,25.8907994 L33.7431434,21.7681152 C35.7193825,22.0972029 37.6397084,22.5970527 39.4819488,23.2442265 C39.4917095,21.0092524 39.49903,19.1229773 39.5020802,18.3195256 L39.5027528,18.1416464 C39.5028497,18.1159012 39.5029389,18.0921422 39.5030203,18.0704224 L39.5036392,17.9042049 L39.5036392,17.9042049 C39.5036392,17.9042049 35.646117,15.1117428 27.9951799,15.1117428 Z" id="Combined-Shape"></path>
        </g>
    </g>
</svg>