<?xml version="1.0" encoding="UTF-8"?>
<svg xmlns="http://www.w3.org/2000/svg" viewBox="0 0 295 295">
  <defs>
    <style>
      .cls-1 {
        fill: #fff;
      }

      .cls-2 {
        fill: #0f1423;
        fill-rule: evenodd;
      }
    </style>
  </defs>
  <g id="Background">
    <rect class="cls-1" width="295" height="295"/>
  </g>
  <g id="Logos">
    <path class="cls-2" d="M194.86,100.25h-28.81s4.84-18.09,4.84-18.09c1.15-4.26-2.07-8.45-6.49-8.45h-44.81c-12.66,0-23.76,8.51-27.04,20.74l-17.92,66.9c-4.51,16.77,8.16,33.25,25.51,33.25h28.81s-4.84,18.09-4.84,18.09c-1.15,4.26,2.06,8.45,6.49,8.45h44.81c12.66,0,23.76-8.51,27.04-20.74l17.92-66.9c4.51-16.77-8.16-33.25-25.51-33.25Zm-91.37-2.73c1.96-7.34,8.62-12.45,16.21-12.45l.02,.02h38.59l-12.23,45.6c-1.75,6.53-7.68,11.08-14.44,11.08h-40l11.84-44.25Zm-3.25,85.72c-9.93,0-17.17-9.43-14.6-19.03,1.75-6.53,7.68-11.08,14.44-11.08h40.01l-8.07,30.1h-31.77Zm91.25,14.1c-1.96,7.34-8.62,12.45-16.21,12.45h0s-38.57,0-38.57,0l12.22-45.6c1.75-6.53,7.68-11.08,14.44-11.08l39.99-.02-11.86,44.25Zm17.88-66.65c-1.75,6.53-7.68,11.08-14.44,11.08h-39.99l8.07-30.1h31.75c9.93,0,17.17,9.43,14.6,19.03Z"/>
  </g>
</svg>