<svg xmlns="http://www.w3.org/2000/svg" width="219" height="40" fill="none">
  <path fill="#1D3730"></path>
  <path fill="#7BF178" d="m31.2456 14.5801-1.0948-.8538c-1.2729-.993-2.8413-1.5308-4.4545-1.5308H10.9599V6.00003h14.735c2.9918 0 5.8983.99876 8.2588 2.83827l1.0933.85235-3.8014 4.88795v.0015ZM23.0029 33.9986h-9.6505c-2.9919 0-5.89831-.9988-8.2588-2.8383l-1.09336-.8523 3.80141-4.888 1.09481.8523c1.27434.993 2.84274 1.5322 4.45744 1.5322h9.6505V34l-.0015-.0014ZM25.1087 16.9038h-9.4464c-2.5936 0-4.7036-2.1121-4.7036-4.7083H4.76932c0 6.0114 4.88607 10.9023 10.89158 10.9023h9.4463c2.5937 0 4.7036 2.112 4.7036 4.7082h6.1894c0-6.0114-4.886-10.9022-10.8915-10.9022Z"></path>
</svg>
