<svg width="56" height="56" viewBox="0 0 56 56" fill="none" xmlns="http://www.w3.org/2000/svg">
<g id="ill_56 / ill_referral_code_56">
<path id="Star 2" d="M24.5937 2.92036C26.3927 0.849937 29.6073 0.849939 31.4063 2.92036L33.7975 5.67249C34.8185 6.84764 36.3732 7.41348 37.9107 7.16958L41.5115 6.59838C44.2204 6.16867 46.683 8.23503 46.7302 10.9774L46.793 14.6227C46.8198 16.1792 47.647 17.612 48.9816 18.4135L52.1071 20.2905C54.4585 21.7025 55.0167 24.8684 53.2901 26.9995L50.995 29.8323C50.015 31.0419 49.7278 32.6712 50.2349 34.143L51.4227 37.5899C52.3163 40.183 50.709 42.967 48.0165 43.4897L44.4374 44.1845C42.9092 44.4812 41.6418 45.5447 41.0843 46.9981L39.7786 50.4021C38.7963 52.963 35.7755 54.0625 33.3769 52.7322L30.1886 50.9639C28.8272 50.2088 27.1728 50.2088 25.8114 50.9639L22.6231 52.7322C20.2245 54.0625 17.2037 52.963 16.2214 50.4021L14.9157 46.9981C14.3581 45.5446 13.0908 44.4812 11.5626 44.1845L7.98352 43.4897C5.29103 42.967 3.68368 40.183 4.57727 37.5899L5.76507 34.143C6.27225 32.6712 5.98496 31.0419 5.00497 29.8323L2.70989 26.9995C0.983295 24.8684 1.54152 21.7025 3.89287 20.2905L7.01842 18.4135C8.35301 17.612 9.18023 16.1792 9.20702 14.6227L9.26977 10.9774C9.31698 8.23503 11.7796 6.16867 14.4885 6.59838L18.0893 7.16958C19.6268 7.41348 21.1815 6.84763 22.2025 5.67249L24.5937 2.92036Z" fill="#FFE3BF"/>
<path id="Star 1" d="M25.6418 7.7141C26.8872 6.28073 29.1128 6.28073 30.3582 7.7141L32.7635 10.4824C33.4703 11.296 34.5466 11.6877 35.6111 11.5188L39.2331 10.9443C41.1084 10.6468 42.8133 12.0774 42.846 13.9759L42.9091 17.6426C42.9277 18.7202 43.5004 19.7122 44.4243 20.267L47.5682 22.155C49.1961 23.1326 49.5825 25.3244 48.3872 26.7997L46.0786 29.6492C45.4002 30.4866 45.2013 31.6146 45.5524 32.6335L46.7472 36.1007C47.3658 37.8959 46.2531 39.8233 44.389 40.1852L40.789 40.8841C39.731 41.0895 38.8535 41.8257 38.4676 42.832L37.1542 46.256C36.4741 48.0288 34.3828 48.79 32.7222 47.8691L29.5152 46.0904C28.5727 45.5676 27.4273 45.5676 26.4848 46.0904L23.2778 47.8691C21.6172 48.79 19.5259 48.0289 18.8458 46.256L17.5324 42.832C17.1465 41.8257 16.269 41.0895 15.211 40.8841L11.611 40.1852C9.74694 39.8233 8.63417 37.8959 9.2528 36.1007L10.4476 32.6335C10.7987 31.6146 10.5998 30.4866 9.92136 29.6492L7.61279 26.7997C6.41746 25.3244 6.80392 23.1326 8.43178 22.155L11.5757 20.267C12.4996 19.7121 13.0723 18.7202 13.0909 17.6426L13.154 13.9759C13.1867 12.0773 14.8916 10.6468 16.7669 10.9443L20.3889 11.5188C21.4534 11.6877 22.5297 11.296 23.2365 10.4824L25.6418 7.7141Z" fill="#EB8302"/>
<path id="Vector 2" d="M22.9092 34.3639L36.9092 20.3639L45.8183 29.9094V33.0912L33.7274 45.1821L22.9092 34.3639Z" fill="url(#paint0_linear_1667_860)"/>
<path id="Vector 1" d="M19.0908 28.2268L24.4501 33.0912L35.6363 21.6366" stroke="white" stroke-width="3.81818" stroke-linecap="round" stroke-linejoin="round"/>
</g>
<defs>
<linearGradient id="paint0_linear_1667_860" x1="31.8183" y1="28.6366" x2="40.7274" y2="38.1821" gradientUnits="userSpaceOnUse">
<stop stop-color="#DC6A00"/>
<stop offset="1" stop-color="#DC6A00" stop-opacity="0"/>
</linearGradient>
</defs>
</svg>
