<?xml version="1.0" standalone="no"?>
<!DOCTYPE svg PUBLIC "-//W3C//DTD SVG 20010904//EN"
 "http://www.w3.org/TR/2001/REC-SVG-20010904/DTD/svg10.dtd">
<svg version="1.0" xmlns="http://www.w3.org/2000/svg"
 width="700.000000pt" height="700.000000pt" viewBox="0 0 700.000000 700.000000"
 preserveAspectRatio="xMidYMid meet">
<metadata>
Created by potrace 1.14, written by Peter Selinger 2001-2017
</metadata>
<g transform="translate(0.000000,700.000000) scale(0.100000,-0.100000)"
fill="#000000" stroke="none">
<path d="M413 6986 c-190 -46 -353 -209 -398 -397 -13 -56 -15 -426 -15 -3089
0 -3336 -5 -3087 63 -3214 47 -89 148 -186 238 -229 41 -19 98 -40 127 -46 38
-8 921 -11 3075 -11 3333 0 3084 -5 3211 63 79 42 183 146 224 223 67 128 62
-121 62 3214 0 3335 5 3086 -62 3214 -41 78 -146 183 -224 224 -128 67 122 62
-3219 61 -2409 -1 -3041 -3 -3082 -13z m4387 -1059 c274 -41 497 -110 725
-222 170 -83 306 -170 481 -307 l122 -94 -327 -422 c-179 -231 -329 -421 -333
-421 -4 -1 -59 39 -122 88 -192 149 -331 224 -501 272 -174 49 -171 49 -1592
49 l-1333 0 0 541 0 540 1388 -4 c1210 -3 1400 -6 1492 -20z m-2886 -1098 c3
-17 6 -44 6 -59 0 -50 40 -184 79 -265 95 -200 272 -354 491 -428 l95 -32
1000 -6 c675 -4 1021 -9 1065 -17 207 -36 360 -80 512 -147 655 -291 1098
-937 1131 -1652 l4 -83 -537 0 -537 0 -7 72 c-31 340 -270 623 -611 724 -55
16 -141 18 -1060 24 -1087 7 -1056 5 -1285 66 -454 119 -851 404 -1106 794
-81 123 -163 289 -207 416 -61 175 -107 423 -107 574 l0 50 534 0 534 0 6 -31z
m-504 -2318 c245 -200 421 -294 660 -354 83 -20 109 -21 1018 -24 l932 -4 0
-539 0 -540 -832 0 c-840 0 -1053 7 -1228 36 -331 55 -633 173 -911 355 -80
53 -284 204 -328 245 -11 10 41 82 313 433 180 232 331 421 335 421 3 0 22
-13 41 -29z"/>
</g>
</svg>
