?xml version="1.0" encoding="utf-8"?>
<!-- Generator: Adobe Illustrator 28.1.0, SVG Export Plug-In . SVG Version: 6.00 Build 0)  -->
<svg version="1.1" id="Capa_1" xmlns="http://www.w3.org/2000/svg" xmlns:xlink="http://www.w3.org/1999/xlink" x="0px" y="0px"
	 viewBox="0 0 283.46 283.46" style="enable-background:new 0 0 283.46 283.46;" xml:space="preserve">
<style type="text/css">
	.st0{fill:#282828;}
	.st1{fill:none;stroke:#FF6702;stroke-width:40;strokeLinejoin:bevel;stroke-miterlimit:10;}
	.st2{fill:#FF6702;}
	.st3{fill:#EDEDED;}
	.st4{fill:none;}
	.st5{opacity:0.87;}
	.st6{fill:#282828;stroke:#FFFFFF;stroke-width:1.0457;stroke-miterlimit:10;}
	.st7{fill:none;stroke:#FF6702;stroke-width:40;stroke-miterlimit:10;}
	.st8{fill:none;stroke:#FF6702;stroke-miterlimit:10;}
	.st9{clipPath:url(#SVGID_00000005954221730140655680000011226474310612088710_);fill:#FF6702;}
	.st10{clipPath:url(#SVGID_00000002343380844258325340000012457369697172873148_);fill:#FF6702;}
	
		.st11{clipPath:url(#SVGID_00000058589814425721610110000017875481889180712333_);fill:none;stroke:#FF6702;stroke-width:0.75;stroke-miterlimit:10;}
	.st12{fill:#282828;stroke:#FF6702;stroke-miterlimit:10;}
	.st13{clipPath:url(#SVGID_00000044893891452223908050000007370948734561642628_);fill:#FF6702;}
	.st14{clipPath:url(#SVGID_00000015351380335236294140000003651613285250432935_);fill:#FF6702;}
	.st15{clipPath:url(#SVGID_00000104695275646167917860000010271880586156286898_);fill:#FF6702;}
	.st16{clipPath:url(#SVGID_00000099643245772305914560000006986589251083745943_);fill:#FF6702;}
	.st17{clipPath:url(#SVGID_00000040568547355575576810000015655670415721173663_);fill:#FF6702;}
	.st18{clipPath:url(#SVGID_00000081629491056074689220000004836773361176732313_);fill:#FF6702;}
	.st19{clipPath:url(#SVGID_00000057862904599596832550000003809786574560053388_);fill:#FF6702;}
	.st20{fill:none;stroke:#FF6702;stroke-width:0.7301;stroke-miterlimit:10;}
	.st21{clipPath:url(#SVGID_00000160884407825559125230000000332930861970405805_);fill:#FF6702;}
	.st22{clipPath:url(#SVGID_00000018948529614416267110000000733823132413263246_);fill:#FF6702;}
	.st23{clipPath:url(#SVGID_00000003102064626761079540000007251171466749705915_);fill:#FF6702;}
	.st24{clipPath:url(#SVGID_00000015342057173887474350000006891831515654579350_);fill:#FF6702;}
	.st25{clipPath:url(#SVGID_00000123430814926701036700000011496376573447417737_);fill:#FF6702;}
	.st26{clipPath:url(#SVGID_00000096766470576079729590000013503811219117161404_);fill:#FF6702;}
	.st27{clipPath:url(#SVGID_00000060713425167913619160000013944845532035411109_);fill:#FF6702;}
	.st28{clipPath:url(#SVGID_00000111175552722852393250000013742932621799997882_);fill:#FF6702;}
	.st29{clipPath:url(#SVGID_00000014617551494222652750000014591886274736066452_);fill:#FF6702;}
	.st30{clipPath:url(#SVGID_00000122681742487692074690000016712440828939946159_);}
	.st31{clipPath:url(#SVGID_00000134965539364247460110000009321761302903056043_);fill:#FF6702;}
	.st32{clipPath:url(#SVGID_00000070084863368150292910000014737644972225723284_);fill:#FF6702;}
	.st33{clipPath:url(#SVGID_00000170966673558045461850000013545793218679403438_);fill:#FF6702;}
	.st34{clipPath:url(#SVGID_00000145049490646740459330000016497036006924637577_);}
	.st35{clipPath:url(#SVGID_00000043433391892585574660000010913664810085409161_);fill:#FF6702;}
	.st36{clipPath:url(#SVGID_00000012459510195479077230000007710523818399872415_);fill:#FF6702;}
	.st37{clipPath:url(#SVGID_00000003784693364728746260000006254736832971408514_);fill:#FF6702;}
	.st38{clipPath:url(#SVGID_00000136381472880535946670000004212267326383668365_);}
	.st39{clipPath:url(#SVGID_00000126295955053367222790000006638067377633530241_);fill:#FF6702;}
	.st40{clipPath:url(#SVGID_00000057844381879720842690000008330712904258868631_);fill:#FF6702;}
	.st41{clipPath:url(#SVGID_00000049214019618220157210000016509592292330717606_);fill:#FF6702;}
	.st42{clipPath:url(#SVGID_00000060724813322873900410000009487862758303223486_);}
	.st43{clipPath:url(#SVGID_00000183243011216006736680000006535386813394533291_);fill:#FF6702;}
	.st44{clipPath:url(#SVGID_00000167374049709121141370000018344657161198907525_);fill:#FF6702;}
	.st45{clipPath:url(#SVGID_00000151540481604814640500000002335254081295491999_);fill:#FF6702;}
	.st46{clipPath:url(#SVGID_00000168093584663623071100000013013491849601668029_);}
</style>
<g>
	<circle class="st3" cx="141.73" cy="141.73" r="138.57"/>
	<path class="st2" d="M243.77,132.12c-6.3-8.22-15.85-12.93-26.19-12.93H65.89c-10.34,0-19.89,4.71-26.19,12.93
		c-6.23,8.12-8.28,18.43-5.64,28.26c5.37,19.98,16.25,38.08,31.44,52.34c21.38,20.05,48.8,30.08,76.23,30.08
		c27.42,0,54.86-10.03,76.23-30.08c15.2-14.26,26.07-32.36,31.44-52.34C252.05,150.55,249.99,140.25,243.77,132.12z M68.21,178.15
		c-4.75-7.42-8.37-15.52-10.67-24.08c-0.91-3.39,0.52-5.94,1.46-7.16c1.66-2.17,4.18-3.41,6.9-3.41h39.71c2.51,0,3.76,3.03,1.99,4.8
		l-30.72,30.72C74.36,181.53,70.12,181.14,68.21,178.15z M129.58,210.93c0,3.55-3.27,6.27-6.74,5.51
		c-9.77-2.15-19.23-5.99-27.92-11.53c-3-1.91-3.4-6.16-0.88-8.67l30.74-30.74c1.77-1.77,4.8-0.52,4.8,1.99V210.93z M141.73,155.95
		c-7.89,0-14.29-6.4-14.29-14.29s6.4-14.29,14.29-14.29s14.29,6.4,14.29,14.29S149.63,155.95,141.73,155.95z M188.55,204.91
		c-8.69,5.53-18.15,9.37-27.92,11.53c-3.47,0.76-6.74-1.96-6.74-5.51v-43.44c0-2.51,3.03-3.76,4.8-1.99l30.74,30.74
		C191.95,198.75,191.55,203,188.55,204.91z M225.93,154.08c-2.3,8.56-5.92,16.66-10.67,24.08c-1.92,2.99-6.15,3.38-8.66,0.87
		l-30.72-30.72c-1.77-1.77-0.52-4.8,1.99-4.8h39.71c2.72,0,5.23,1.24,6.9,3.41C225.41,148.14,226.84,150.69,225.93,154.08z"/>
</g>
</svg>
